<?xml version="1.0" standalone="no"?><!DOCTYPE svg PUBLIC "-//W3C//DTD SVG 1.1//EN" "http://www.w3.org/Graphics/SVG/1.1/DTD/svg11.dtd"><svg t="1611660509586" class="icon" viewBox="0 0 1024 1024" version="1.1" xmlns="http://www.w3.org/2000/svg" p-id="1412" xmlns:xlink="http://www.w3.org/1999/xlink" width="200" height="200"><defs><style type="text/css"></style></defs><path d="M409.408 76.16a7.936 7.936 0 0 0-5.696 2.368L236.864 245.376l142.848 142.912-63.04 63.04a8 8 0 0 0 0 11.328l96.896 96.896-29.44 29.44a8 8 0 0 0 0 11.328l39.616 39.616a8 8 0 0 0 11.328 0l29.44-29.44 91.84 91.904a8 8 0 0 0 11.328 0L635.712 634.24l137.28 137.152a8 8 0 0 0 11.328 0l161.152-161.216a8 8 0 0 0 0-11.264L808.32 461.76l129.088-129.088a8 8 0 0 0 0-11.328L697.6 81.664a8 8 0 0 0-11.328 0L552.32 215.68 415.04 78.528a8 8 0 0 0-5.632-2.368z m21.184 261.12L338.688 245.44 409.408 174.72l91.904 91.968L430.592 337.28z m131.392 268.928L412.864 456.96l279.168-279.232 149.12 149.184-279.168 279.232z m216.64 69.12l-91.968-91.968 70.72-70.656 91.968 91.904-70.72 70.72z m-468.48-75.776l-1.024 0.064-55.68 6.72a8 8 0 0 0-6.912 9.216 193.92 193.92 0 0 0 157.696 159.36 8 8 0 0 0 7.936-6.848l7.68-55.552a8 8 0 0 0-6.272-8.96 121.92 121.92 0 0 1-95.552-97.408 8 8 0 0 0-7.872-6.592z m-167.488 48.64h-0.64l-55.872 4.48a8 8 0 0 0-7.36 8.768 313.92 313.92 0 0 0 278.336 279.552h0.896c4.16 0 7.616-3.136 7.936-7.296l4.8-55.808a8 8 0 0 0-7.104-8.64 241.728 241.728 0 0 1-213.12-213.952 8 8 0 0 0-7.872-7.168z" p-id="1413" fill="#e3f6d3"></path></svg>