<?xml version="1.0" standalone="no"?><!DOCTYPE svg PUBLIC "-//W3C//DTD SVG 1.1//EN" "http://www.w3.org/Graphics/SVG/1.1/DTD/svg11.dtd"><svg t="1612059972581" class="icon" viewBox="0 0 1024 1024" version="1.1" xmlns="http://www.w3.org/2000/svg" p-id="2097" xmlns:xlink="http://www.w3.org/1999/xlink" width="200" height="200"><defs><style type="text/css"></style></defs><path d="M256.02048 256.90112c0-33.47968-0.38912-63.22688 0.09216-92.95872 0.67072-41.29792 25.86624-67.08736 67.4048-67.24096 125.38368-0.47104 250.77248-0.45056 376.15616-0.0256 42.36288 0.14336 67.47136 26.24 68.21888 69.36064 0.49664 28.91264 0.09728 57.84064 0.09728 90.86464h112.4608c79.58528 0 79.58528 0 79.58528 78.59712 0 179.97824 0.0256 359.95136-0.02048 539.9296-0.01024 45.57824-6.54336 52.18816-51.42528 52.19328-264.4224 0.03072-528.83968 0.03072-793.26208 0-45.25568-0.00512-51.328-6.144-51.33824-52.0448-0.04608-189.35808-0.04608-378.71616 0.00512-568.07936 0.01024-42.37312 8.2432-50.49344 50.94912-50.57536 45.93152-0.09216 91.85792-0.02048 141.07648-0.02048z m638.5664 606.39744v-268.0832H614.7072c0 19.01056-0.23552 35.97824 0.05632 52.93568 0.39424 23.06048-11.63776 36.00896-33.64864 36.54656-46.03392 1.12128-92.12416 1.05472-138.1632 0.06144-22.10816-0.47616-34.14528-13.16864-33.72032-36.31616 0.32256-17.65376 0.06144-35.32288 0.06144-53.26848H129.57696v268.12416h765.00992zM129.23904 526.56128h277.28384c1.19296-3.20512 2.23232-4.73088 2.26304-6.272 0.26112-14.48448 0.27136-28.96896 0.50176-43.45344 0.44544-28.64128 9.74848-39.82848 37.36576-40.4224a3093.4272 3093.4272 0 0 1 130.41664-0.01024c27.27424 0.5632 37.10464 12.1088 37.6064 40.49408 0.29696 16.6656 0.05632 33.34656 0.05632 49.85344h280.01792V323.16928H129.23904v203.392z m192.03584-271.87712h380.47232V161.56672H321.27488v93.11744z m228.54656 364.22656V502.49216H474.1888v116.41856h75.63264z" p-id="2098" fill="#f0d1d1"></path></svg>